<?xml version="1.0" encoding="UTF-8"?>
<svg width="200" height="200" viewBox="0 0 200 200" xmlns="http://www.w3.org/2000/svg">
  <defs>
    <!-- Gradient for logo lines -->
    <linearGradient id="primaryGradient" x1="0%" y1="0%" x2="100%" y2="100%">
      <stop offset="0%" stop-color="#06b6d4" />
      <stop offset="50%" stop-color="#8b5cf6" />
      <stop offset="100%" stop-color="#ec4899" />
    </linearGradient>

    <!-- Light radial background -->
    <radialGradient id="bgGradient" cx="50%" cy="50%" r="70%">
      <stop offset="0%" stop-color="#ffffff" />
      <stop offset="100%" stop-color="#f0f4ff" />
    </radialGradient>
  </defs>

  <!-- Background -->
  <rect width="200" height="200" fill="url(#bgGradient)" rx="20" ry="20"/>

  <!-- Main chat bubble outline -->
  <path d="M60 50 C40 50, 25 65, 25 85 L25 115 C25 135, 40 150, 60 150 L70 150 L85 165 L90 150 L140 150 C160 150, 175 135, 175 115 L175 85 C175 65, 160 50, 140 50 Z" 
        fill="none" 
        stroke="url(#primaryGradient)" 
        stroke-width="4"/>

  <!-- Central neural node -->
  <circle cx="100" cy="100" r="6" fill="url(#primaryGradient)"/>

  <!-- Surrounding nodes -->
  <circle cx="70" cy="80" r="4" fill="url(#primaryGradient)"/>
  <circle cx="130" cy="80" r="4" fill="url(#primaryGradient)"/>
  <circle cx="70" cy="120" r="4" fill="url(#primaryGradient)"/>
  <circle cx="130" cy="120" r="4" fill="url(#primaryGradient)"/>

  <!-- Connections -->
  <line x1="100" y1="100" x2="70" y2="80" stroke="url(#primaryGradient)" stroke-width="2"/>
  <line x1="100" y1="100" x2="130" y2="80" stroke="url(#primaryGradient)" stroke-width="2"/>
  <line x1="100" y1="100" x2="70" y2="120" stroke="url(#primaryGradient)" stroke-width="2"/>
  <line x1="100" y1="100" x2="130" y2="120" stroke="url(#primaryGradient)" stroke-width="2"/>
</svg>
